<?xml version="1.0" standalone="no"?>
<!DOCTYPE svg PUBLIC "-//W3C//DTD SVG 1.1//EN" "http://www.w3.org/Graphics/SVG/1.1/DTD/svg11.dtd" >
<svg xmlns="http://www.w3.org/2000/svg" xmlns:xlink="http://www.w3.org/1999/xlink" version="1.1">
<metadata></metadata>
<defs>
<font id="archiabold" horiz-adv-x="624" >
<font-face units-per-em="1000" ascent="750" descent="-250" />
<missing-glyph horiz-adv-x="250" />
<glyph unicode="&#x2e;&#x2e;&#x2e;" horiz-adv-x="784" d="M137 -13q-35 0 -61 25t-26 59t26 59t61 25t60 -24.5t25 -59.5t-25 -59.5t-60 -24.5zM393 -13q-35 0 -61 25t-26 59t26 59t61 25t60 -24.5t25 -59.5t-25 -59.5t-60 -24.5zM649 -13q-35 0 -61 25t-26 59t26 59t61 25t60 -24.5t25 -59.5t-25 -59.5t-60 -24.5z" />
<glyph unicode="&#xb0;C" horiz-adv-x="963" d="M200 411q-67 0 -111 44t-44 107q0 62 44.5 106.5t110.5 44.5t110 -44t44 -107t-44 -107t-110 -44zM656 -13q-95 0 -165.5 64.5t-70.5 166.5v264q0 102 70.5 166.5t165.5 64.5q96 0 166.5 -64.5t70.5 -166.5v-4h-147q0 40 -25 66.5t-65 26.5q-39 0 -64 -26.5t-25 -66.5 v-256q0 -40 24.5 -66.5t64.5 -26.5q41 0 65.5 26.5t24.5 66.5h147v-4q0 -102 -70.5 -166.5t-166.5 -64.5zM200 514q21 0 34 13.5t13 34.5t-13 35t-34 14t-34.5 -14t-13.5 -35t13.5 -34.5t34.5 -13.5z" />
<glyph horiz-adv-x="0" />
<glyph horiz-adv-x="333" />
<glyph horiz-adv-x="0" />
<glyph horiz-adv-x="0" />
<glyph unicode="&#xd;" horiz-adv-x="0" />
<glyph unicode=" "  horiz-adv-x="250" />
<glyph unicode="&#x09;" horiz-adv-x="250" />
<glyph unicode="&#xa0;" horiz-adv-x="250" />
<glyph unicode="!" horiz-adv-x="322" d="M102 224l-12 476h146l-13 -476h-121zM162 -13q-38 0 -62.5 24.5t-24.5 59.5t24.5 59.5t62.5 24.5t61.5 -24.5t23.5 -59.5t-23.5 -59.5t-61.5 -24.5z" />
<glyph unicode="&#x22;" horiz-adv-x="440" d="M78 458l-13 242h136l-12 -242h-111zM252 458l-12 242h135l-12 -242h-111z" />
<glyph unicode="#" horiz-adv-x="684" d="M94 0l38 173h-92l24 127h94l19 89h-91l24 127h95l39 184h136l-40 -184h74l39 184h135l-39 -184h95l-24 -127h-98l-18 -89h95l-25 -127h-96l-38 -173h-136l37 173h-74l-37 -173h-136zM295 300h73l18 89h-72z" />
<glyph unicode="$" horiz-adv-x="600" d="M565 203q0 -82 -57.5 -141t-155.5 -72v-75h-100v76q-97 14 -157 80.5t-60 167.5h149q0 -35 18.5 -60.5t49.5 -37.5v161q-43 10 -72 20.5t-60.5 32.5t-47.5 60t-16 92q0 76 52.5 133t143.5 70v56h100v-57q83 -14 139 -71t56 -159h-150q0 57 -45 82v-139q36 -8 61 -15.5 t56.5 -24.5t50 -38.5t32 -57.5t13.5 -83zM205 507q0 -40 47 -59v120q-47 -16 -47 -61zM352 136q60 16 60 68q0 51 -60 73v-141z" />
<glyph unicode="%" horiz-adv-x="819" d="M206 405q-66 0 -111 45t-45 109t45 109t111 45t111 -45t45 -109t-45 -109t-111 -45zM79 0l508 700h153l-509 -700h-152zM206 503q24 1 39 16.5t15 39.5t-15 39.5t-39 16.5q-24 -1 -39 -16.5t-15 -39.5t15 -39.5t39 -16.5zM613 -13q-66 0 -111 45t-45 109t45 109t111 45 t111 -45t45 -109t-45 -109t-111 -45zM613 85q24 1 39 16.5t15 39.5t-15 39.5t-39 16.5q-24 -1 -39 -16.5t-15 -39.5t15 -39.5t39 -16.5z" />
<glyph unicode="&#x26;" horiz-adv-x="707" d="M692 0h-184l-29 37q-78 -50 -178 -50q-116 0 -188.5 68.5t-72.5 168.5q0 132 130 202l-70 89v185h420v-137h-270v-11l227 -284q11 41 11 84h144q0 -121 -53 -211zM301 130q50 0 88 20l-131 165q-34 -10 -52.5 -34.5t-18.5 -56.5q0 -44 33 -69t81 -25z" />
<glyph unicode="'" horiz-adv-x="236" d="M63 458l-13 242h136l-12 -242h-111z" />
<glyph unicode="(" horiz-adv-x="400" d="M245 -143q-76 0 -120.5 39.5t-44.5 124.5v578q0 89 43.5 126.5t121.5 37.5h50v-132h-40q-34 0 -34 -33v-576q0 -33 34 -33h40v-132h-50z" />
<glyph unicode=")" horiz-adv-x="400" d="M105 -143v132h40q34 0 34 33v576q0 33 -34 33h-40v132h50q78 0 121.5 -37.5t43.5 -126.5v-578q0 -85 -44.5 -124.5t-120.5 -39.5h-50z" />
<glyph unicode="*" horiz-adv-x="468" d="M195 356l12 106l-7 2l-64 -83l-51 52l83 64l-3 8l-105 -12v72l106 -13l3 6l-86 68l53 49l65 -83l6 2l-12 106h78l-12 -106l6 -2l65 83l53 -49l-86 -68l3 -6l106 13v-72l-105 12l-3 -8l83 -64l-51 -52l-64 83l-7 -2l12 -106h-78z" />
<glyph unicode="+" horiz-adv-x="497" d="M181 62v185h-176v129h176v184h135v-184h176v-129h-176v-185h-135z" />
<glyph unicode="," horiz-adv-x="306" d="M65 -111l20 263h156l-62 -263h-114z" />
<glyph unicode="-" horiz-adv-x="406" d="M55 227v136h296v-136h-296z" />
<glyph unicode="." horiz-adv-x="302" d="M152 -13q-38 0 -62.5 24.5t-24.5 59.5t24.5 59.5t62.5 24.5t61.5 -24.5t23.5 -59.5t-23.5 -59.5t-61.5 -24.5z" />
<glyph unicode="/" horiz-adv-x="489" d="M20 -108l309 858h140l-308 -858h-141z" />
<glyph unicode="0" horiz-adv-x="593" d="M296 -13q-95 0 -165.5 64.5t-70.5 166.5v264q0 102 70.5 166.5t165.5 64.5q96 0 166.5 -64.5t70.5 -166.5v-264q0 -102 -70.5 -166.5t-166.5 -64.5zM296 129q41 0 65.5 26.5t24.5 66.5v256q0 40 -25 66.5t-65 26.5q-39 0 -64 -26.5t-25 -66.5v-256q0 -40 24.5 -66.5 t64.5 -26.5z" />
<glyph unicode="1" horiz-adv-x="511" d="M76 0v135h136v415h-11l-151 -80v147l153 83h156v-565h117v-135h-400z" />
<glyph unicode="2" horiz-adv-x="579" d="M63 0v196l245 206q57 47 57 97q0 29 -22.5 50.5t-58.5 21.5t-59.5 -26t-23.5 -66h-141q0 94 60.5 164t165.5 70q103 0 166 -61t63 -146q0 -65 -27 -112t-81 -90l-194 -155v-11h306v-138h-456z" />
<glyph unicode="3" horiz-adv-x="590" d="M288 -12q-107 0 -167.5 70.5t-60.5 160.5h138q1 -43 27.5 -67t65.5 -24q42 0 68 25t26 63q0 40 -25.5 64.5t-75.5 24.5h-102v162l174 94v11h-282v128h431v-183l-174 -93v-11q81 0 140 -59t59 -137q0 -96 -67 -162.5t-175 -66.5z" />
<glyph unicode="4" horiz-adv-x="631" d="M353 0v152h-303v138l235 410h215v-414h81v-134h-81v-152h-147zM200 286h153v264h-12l-141 -253v-11z" />
<glyph unicode="5" horiz-adv-x="601" d="M299 -13q-99 0 -167 59t-72 171h140q1 -43 29 -66.5t67 -23.5q41 0 68 26.5t27 67.5t-27.5 69.5t-71.5 28.5q-25 0 -45.5 -11t-28.5 -22l-8 -11h-136l23 425h402v-135h-271l-9 -147h12q35 29 92 29q95 0 156.5 -66t61.5 -161q0 -102 -69.5 -167.5t-172.5 -65.5z" />
<glyph unicode="6" horiz-adv-x="608" d="M301 -13q-100 0 -170.5 68t-70.5 168q0 69 43 145l191 332h165l-160 -257l9 -7q16 8 38 8q83 0 142.5 -64.5t59.5 -156.5q0 -98 -73.5 -167t-173.5 -69zM303 127q40 0 67.5 27.5t27.5 68.5t-27.5 68.5t-67.5 27.5t-66.5 -27.5t-26.5 -68.5t26.5 -68.5t66.5 -27.5z" />
<glyph unicode="7" horiz-adv-x="560" d="M117 0l243 554v11h-181v-64h-129v199h460v-163l-230 -537h-163z" />
<glyph unicode="8" horiz-adv-x="578" d="M424 376q42 -18 73 -64.5t31 -105.5q0 -96 -67 -156.5t-172 -60.5t-172 60.5t-67 156.5q0 59 31 105.5t73 64.5v11q-32 19 -52.5 56.5t-20.5 80.5q0 86 60 137.5t148 51.5t148 -51.5t60 -137.5q0 -43 -20.5 -80.5t-52.5 -56.5v-11zM289 583q-31 0 -50 -19.5t-19 -48.5 q0 -28 20 -49t49 -21q31 0 50 20.5t19 49.5t-19 48.5t-50 19.5zM289 129q45 0 68 26t23 62t-25 60.5t-66 24.5t-66 -24.5t-25 -60.5t23 -62t68 -26z" />
<glyph unicode="9" horiz-adv-x="608" d="M149 0l160 257l-9 7q-16 -8 -38 -8q-83 0 -142.5 64.5t-59.5 156.5q0 98 73.5 167t173.5 69t170.5 -68t70.5 -168q0 -69 -43 -145l-191 -332h-165zM305 381q40 0 66.5 27.5t26.5 68.5t-26.5 68.5t-66.5 27.5t-67.5 -27.5t-27.5 -68.5t27.5 -68.5t67.5 -27.5z" />
<glyph unicode=":" horiz-adv-x="272" d="M137 323q-38 0 -62.5 24.5t-24.5 59.5t24.5 59.5t62.5 24.5t61.5 -24.5t23.5 -59.5t-23.5 -59.5t-61.5 -24.5zM137 -13q-38 0 -62.5 24.5t-24.5 59.5t24.5 59.5t62.5 24.5t61.5 -24.5t23.5 -59.5t-23.5 -59.5t-61.5 -24.5z" />
<glyph unicode=";" horiz-adv-x="278" d="M143 323q-38 0 -62.5 24.5t-24.5 59.5t24.5 59.5t62.5 24.5t61.5 -24.5t23.5 -59.5t-23.5 -59.5t-61.5 -24.5zM50 -111l20 263h156l-62 -263h-114z" />
<glyph unicode="&#x3c;" horiz-adv-x="530" d="M480 67l-430 155v175l430 154v-142l-291 -94v-11l291 -95v-142z" />
<glyph unicode="=" horiz-adv-x="497" d="M5 342v129h487v-129h-487zM5 146v129h487v-129h-487z" />
<glyph unicode="&#x3e;" horiz-adv-x="530" d="M50 67v142l291 95v11l-291 94v142l430 -154v-175z" />
<glyph unicode="?" horiz-adv-x="527" d="M178 223v74q0 43 14 70.5t55 50.5l34 20q17 10 26.5 18t17.5 23t8 33q0 28 -19.5 47.5t-53.5 19.5t-53.5 -22t-19.5 -58h-137q0 94 54.5 154t157.5 60q97 0 156 -55t59 -141q0 -110 -96 -169l-41 -25q-22 -12 -22 -36v-64h-140zM249 -13q-38 0 -62.5 24.5t-24.5 59.5 t24.5 59.5t62.5 24.5t61.5 -24.5t23.5 -59.5t-23.5 -59.5t-61.5 -24.5z" />
<glyph unicode="@" horiz-adv-x="907" d="M457 -158q-109 0 -204 51.5t-154 148.5t-59 218q0 175 119.5 295.5t302.5 120.5q181 0 293 -112.5t112 -265.5q0 -115 -52.5 -176t-133.5 -61q-83 0 -115 66h-11q-48 -66 -134 -66q-76 0 -127 54t-51 144q0 89 47.5 143t121.5 54q34 0 61 -14.5t40 -35.5h12v44h127v-235 q0 -42 35 -42q26 0 45 32t19 90q0 111 -75.5 189t-213.5 78q-135 0 -216.5 -89.5t-81.5 -212.5q0 -132 87 -217t206 -85q107 0 180 38l53 -97q-104 -57 -233 -57zM450 179q32 0 53 20.5t21 59.5q0 35 -20.5 57t-53.5 22q-32 0 -52 -21t-20 -58q0 -36 20 -58t52 -22z" />
<glyph unicode="A" horiz-adv-x="692" d="M530 0l-45 140h-275l-45 -140h-160l237 700h210l235 -700h-157zM253 276h188l-89 274h-11z" />
<glyph unicode="B" horiz-adv-x="643" d="M55 0v128h60v444h-60v128h314q105 0 163.5 -55t58.5 -142q0 -40 -21 -74.5t-54 -53.5v-6q42 -20 69.5 -59.5t27.5 -94.5q0 -98 -65 -156.5t-158 -58.5h-335zM259 421h108q33 0 54 21t21 52q0 30 -21.5 50.5t-53.5 20.5h-108v-144zM259 134h111q39 0 65 23.5t26 61.5 t-26.5 61t-65.5 23h-110v-169z" />
<glyph unicode="C" horiz-adv-x="779" d="M402 -14q-159 0 -260.5 104t-101.5 260q0 155 101.5 259t260.5 104q123 0 215 -67.5t127 -190.5h-159q-23 54 -72.5 84t-110.5 30q-90 0 -149 -62.5t-59 -156.5q0 -95 59 -157t149 -62q60 0 109.5 29t73.5 84h159q-35 -123 -127 -190.5t-215 -67.5z" />
<glyph unicode="D" horiz-adv-x="726" d="M55 0v128h60v444h-60v128h275q167 0 261.5 -96.5t94.5 -253.5q0 -164 -93.5 -257t-262.5 -93h-275zM262 134h68q96 0 149 57.5t53 158.5q0 98 -53.5 156.5t-148.5 58.5h-68v-431z" />
<glyph unicode="E" horiz-adv-x="560" d="M70 0v700h440v-140h-291v-135h251v-139h-251v-147h301v-139h-450z" />
<glyph unicode="F" horiz-adv-x="550" d="M70 0v700h440v-140h-291v-154h272v-139h-272v-267h-149z" />
<glyph unicode="G" horiz-adv-x="798" d="M403 -14q-159 1 -261 104.5t-102 259.5q0 155 102 259t261 104q122 0 214.5 -68.5t127.5 -191.5h-159q-23 55 -72.5 85.5t-110.5 30.5q-93 0 -151 -62t-58 -157q0 -96 58.5 -159t151.5 -63q139 0 189 109h-185v126h350q-2 -98 -34.5 -173.5t-85.5 -118t-112.5 -64 t-122.5 -21.5z" />
<glyph unicode="H" horiz-adv-x="703" d="M70 0v700h149v-275h266v275h148v-700h-148v285h-266v-285h-149z" />
<glyph unicode="I" horiz-adv-x="469" d="M65 0v136h94v428h-94v136h339v-136h-96v-428h96v-136h-339z" />
<glyph unicode="J" horiz-adv-x="530" d="M237 -11q-95 0 -161 58.5t-66 163.5h149q0 -38 21.5 -59.5t59.5 -21.5q40 0 60.5 24.5t20.5 62.5v343h-192v140h341v-482q0 -100 -57 -164.5t-176 -64.5z" />
<glyph unicode="K" horiz-adv-x="656" d="M70 0v700h149v-269h70l157 269h181l-210 -337l219 -363h-183l-165 291h-69v-291h-149z" />
<glyph unicode="L" horiz-adv-x="526" d="M70 0v700h149v-561h277v-139h-426z" />
<glyph unicode="M" horiz-adv-x="867" d="M70 0v700h261l97 -550h11l97 550h261v-700h-145v550h-11l-100 -550h-215l-99 550h-12v-550h-145z" />
<glyph unicode="N" horiz-adv-x="714" d="M70 0v700h254l162 -550h10v550h148v-700h-256l-158 550h-11v-550h-149z" />
<glyph unicode="O" horiz-adv-x="810" d="M405 -13q-158 0 -261.5 104t-103.5 260q0 154 104.5 258t260.5 104q157 0 261 -104.5t104 -257.5q0 -155 -104 -259.5t-261 -104.5zM405 131q90 0 150.5 62.5t60.5 157.5q0 94 -60.5 156t-150.5 62q-91 0 -151 -62t-60 -156q0 -95 60 -157.5t151 -62.5z" />
<glyph unicode="P" horiz-adv-x="582" d="M70 0v700h249q105 0 169 -61.5t64 -163.5q0 -101 -66 -164.5t-167 -63.5h-100v-247h-149zM219 386h94q40 0 64.5 25t24.5 64q0 38 -24.5 62t-64.5 24h-94v-175z" />
<glyph unicode="Q" horiz-adv-x="808" d="M511 -81l-31 76q-38 -8 -77 -8q-156 0 -259.5 104t-103.5 260q0 154 104.5 258t259.5 104q156 0 260 -104.5t104 -257.5q0 -95 -43 -175.5t-118 -129.5l51 -127h-147zM404 129q8 0 22 2l-69 174h147l46 -116q67 62 67 162q0 94 -61.5 157t-151.5 63q-91 0 -152 -63 t-61 -157q0 -95 61 -158.5t152 -63.5z" />
<glyph unicode="R" horiz-adv-x="604" d="M70 0v700h241q111 0 180.5 -60.5t69.5 -158.5q0 -146 -125 -205l153 -276h-170l-129 253h-71v-253h-149zM219 388h94q42 0 67.5 24t25.5 66q0 36 -25 59.5t-73 23.5h-89v-173z" />
<glyph unicode="S" horiz-adv-x="600" d="M301 -13q-117 0 -191.5 69.5t-74.5 182.5h149q0 -50 35 -79t87 -29q51 0 78.5 20t27.5 53q0 27 -15.5 45t-40.5 26.5t-57 16.5t-65 14t-65 20.5t-57 35t-40.5 57.5t-15.5 88q0 86 66.5 146t176.5 60q45 0 87 -13t79 -39t59.5 -73t22.5 -109h-150q0 42 -27.5 69t-74.5 27 q-45 0 -67.5 -20t-22.5 -48q0 -30 26.5 -48t66.5 -24.5t87 -20.5t87 -33t66.5 -64.5t26.5 -113.5q0 -93 -72 -154.5t-192 -61.5z" />
<glyph unicode="T" horiz-adv-x="572" d="M212 0v560h-187v140h522v-140h-187v-560h-148z" />
<glyph unicode="U" horiz-adv-x="672" d="M336 -13q-131 0 -203.5 74.5t-72.5 199.5v439h149v-438q0 -61 32.5 -96t94.5 -35q61 0 94 35t33 97v437h149v-438q0 -125 -73 -200t-203 -75z" />
<glyph unicode="V" horiz-adv-x="696" d="M237 0l-227 700h160l167 -550h11l173 550h165l-234 -700h-215z" />
<glyph unicode="W" horiz-adv-x="926" d="M144 0l-134 700h162l86 -550h11l83 550h222l83 -550h11l86 550h162l-137 -700h-225l-85 550h-12l-85 -550h-228z" />
<glyph unicode="X" horiz-adv-x="626" d="M5 0l203 360l-192 340h170l121 -226h13l121 226h169l-192 -340l203 -360h-166l-136 248h-12l-136 -248h-166z" />
<glyph unicode="Y" horiz-adv-x="662" d="M257 0v294l-247 406h171l142 -251h11l143 251h175l-247 -406v-294h-148z" />
<glyph unicode="Z" horiz-adv-x="664" d="M60 0v201l393 353v11h-382v135h531v-203l-392 -351v-11h394v-135h-544z" />
<glyph unicode="[" horiz-adv-x="400" d="M80 -143v906h215v-131h-75v-644h75v-131h-215z" />
<glyph unicode="\" horiz-adv-x="489" d="M328 -108l-308 858h140l309 -858h-141z" />
<glyph unicode="]" horiz-adv-x="400" d="M105 -143v131h75v644h-75v131h215v-906h-215z" />
<glyph unicode="^" horiz-adv-x="597" d="M50 306l158 394h182l157 -394h-149l-93 255h-12l-94 -255h-149z" />
<glyph unicode="_" horiz-adv-x="629" d="M40 -158v129h549v-129h-549z" />
<glyph unicode="`" horiz-adv-x="299" d="M152 600l-102 149h158l41 -149h-97z" />
<glyph unicode="a" horiz-adv-x="665" d="M278 -13q-102 0 -172.5 79.5t-70.5 197.5t70 197t172 79q93 0 146 -62h11v49h146v-383q0 -22 24 -22h21v-122h-132q-25 0 -41.5 16.5t-16.5 39.5h-11q-48 -69 -146 -69zM310 127q56 0 91 39.5t35 96.5q0 63 -36.5 99.5t-90.5 36.5t-90 -37.5t-36 -98.5t36.5 -98.5 t90.5 -37.5z" />
<glyph unicode="b" horiz-adv-x="640" d="M359 -13q-95 0 -142 62h-11v-49h-146v750h146v-277h11q54 67 150 67q101 0 169.5 -80t68.5 -196q0 -118 -71.5 -197.5t-174.5 -79.5zM330 125q54 0 90.5 38.5t36.5 99.5t-36 99.5t-90 38.5t-90.5 -37.5t-36.5 -100.5q0 -57 35 -97.5t91 -40.5z" />
<glyph unicode="c" horiz-adv-x="609" d="M309 -13q-122 0 -198 79.5t-76 196.5q0 118 76 197.5t198 79.5q98 0 169 -51.5t96 -148.5l-135 -34q-12 45 -45.5 70t-80.5 25q-59 0 -94.5 -39t-35.5 -99q0 -59 36 -98t94 -39q47 0 80 24.5t45 67.5l136 -33q-24 -96 -95 -147t-170 -51z" />
<glyph unicode="d" horiz-adv-x="630" d="M281 -13q-103 0 -174.5 79.5t-71.5 197.5q0 116 68.5 196t169.5 80q96 0 150 -67h11v277h146v-750h-146v49h-11q-47 -62 -142 -62zM310 125q56 0 91 40.5t35 97.5q0 63 -36.5 100.5t-90.5 37.5t-90 -38.5t-36 -99.5t36.5 -99.5t90.5 -38.5z" />
<glyph unicode="e" horiz-adv-x="602" d="M308 -13q-120 0 -196.5 78t-76.5 198q0 121 78 199t191 78q119 0 191 -78t72 -198v-37h-382q1 -51 34.5 -81t86.5 -30q85 0 114 63l130 -30q-27 -83 -92.5 -122.5t-149.5 -39.5zM186 324h234q-5 40 -37.5 67.5t-78.5 27.5q-48 0 -80 -28.5t-38 -66.5z" />
<glyph unicode="f" horiz-adv-x="421" d="M107 0v398h-87v129h87v60q0 163 175 163h101v-131h-97q-18 0 -26 -7.5t-8 -25.5v-59h134v-129h-134v-398h-145z" />
<glyph unicode="g" horiz-adv-x="630" d="M166 -230v134h235q33 0 33 36v109h-11q-51 -62 -142 -62q-103 0 -174.5 79.5t-71.5 197.5q0 116 68.5 196t170.5 80q39 0 70 -11.5t46.5 -24t33.5 -31.5h11v54h145v-594q0 -83 -46.5 -123t-129.5 -40h-238zM310 125q55 0 90.5 40t35.5 99q0 62 -36 99.5t-90 37.5 q-53 0 -89.5 -38.5t-36.5 -98.5q0 -61 36.5 -100t89.5 -39z" />
<glyph unicode="h" horiz-adv-x="582" d="M60 0v750h146v-271h10q46 61 129 61q82 0 134.5 -53.5t52.5 -132.5v-354h-146v307q0 40 -24.5 66t-63.5 26q-40 0 -66 -26.5t-26 -65.5v-307h-146z" />
<glyph unicode="i" horiz-adv-x="343" d="M202 597q-37 0 -62 24.5t-25 60.5q0 35 25 59.5t62 24.5t61.5 -24.5t24.5 -59.5q0 -36 -24.5 -60.5t-61.5 -24.5zM127 0v398h-87v129h232v-527h-145z" />
<glyph unicode="j" horiz-adv-x="357" d="M216 597q-37 0 -62 24.5t-25 60.5q0 35 25 59.5t62 24.5t61.5 -24.5t24.5 -59.5q0 -36 -24.5 -60.5t-61.5 -24.5zM2 -230v132h105q33 0 33 33v463h-100v129h245v-593q0 -83 -46 -123.5t-129 -40.5h-108z" />
<glyph unicode="k" horiz-adv-x="555" d="M60 0v750h146v-400h44l114 177h173l-161 -235v-11l169 -281h-174l-118 216h-47v-216h-146z" />
<glyph unicode="l" horiz-adv-x="405" d="M40 0v130h92v490h-92v130h238v-620h92v-130h-330z" />
<glyph unicode="m" horiz-adv-x="870" d="M60 0v527h146v-48h11q16 25 47 43t73 18q95 0 139 -77h11q51 77 146 77q81 0 134 -53t53 -131v-356h-146v306q0 44 -22 68.5t-57 24.5q-36 0 -59 -25t-23 -68v-306h-145v319q0 37 -23 58.5t-58 21.5q-34 0 -57.5 -25.5t-23.5 -65.5v-308h-146z" />
<glyph unicode="n" horiz-adv-x="579" d="M60 0v527h146v-48h10q43 61 128 61q82 0 133.5 -53.5t51.5 -132.5v-354h-146v307q0 40 -24.5 66t-62.5 26q-39 0 -64.5 -26.5t-25.5 -66.5v-306h-146z" />
<glyph unicode="o" horiz-adv-x="631" d="M316 -13q-123 0 -202 79t-79 197q0 119 79.5 198t201.5 79t201 -79.5t79 -197.5t-79 -197t-201 -79zM316 126q58 0 95 39t37 98q0 60 -37 99t-95 39t-95.5 -39t-37.5 -99q0 -59 37.5 -98t95.5 -39z" />
<glyph unicode="p" horiz-adv-x="640" d="M60 -230v757h146v-49h11q49 62 142 62q103 0 174.5 -79.5t71.5 -197.5q0 -116 -68.5 -196t-169.5 -80q-104 0 -150 67h-11v-284h-146zM331 125q54 0 90 39t36 100q0 60 -36.5 98.5t-90.5 38.5q-56 0 -91 -40t-35 -97q0 -64 36.5 -101.5t90.5 -37.5z" />
<glyph unicode="q" horiz-adv-x="630" d="M434 -230v284h-11q-52 -67 -150 -67q-102 0 -170 79.5t-68 196.5q0 118 72 197.5t175 79.5q89 0 142 -62h11v49h145v-757h-146zM309 125q54 0 90.5 37.5t36.5 101.5q0 57 -35 97t-90 40q-54 0 -90.5 -38t-36.5 -99t36 -100t89 -39z" />
<glyph unicode="r" horiz-adv-x="421" d="M60 0v527h144v-70h10q18 35 55 59t80 24h42v-145h-54q-61 0 -96.5 -38t-35.5 -110v-247h-145z" />
<glyph unicode="s" horiz-adv-x="511" d="M256 -13q-89 0 -149.5 43.5t-71.5 127.5l128 23q4 -35 32 -53t68 -18q66 0 66 42q0 20 -20.5 32.5t-51 17.5t-66.5 16t-66.5 26t-51 49t-20.5 83q0 69 57 116.5t144 47.5q83 0 138 -37t72 -108l-126 -34q-8 28 -30 43.5t-52 15.5q-26 0 -42.5 -10.5t-16.5 -27.5 q0 -19 20.5 -30.5t51.5 -16.5t67.5 -16t67.5 -25.5t51.5 -47.5t20.5 -80q0 -80 -59 -129.5t-161 -49.5z" />
<glyph unicode="t" horiz-adv-x="443" d="M282 0q-165 0 -165 163v235h-87v129h97v144h136v-144h140v-129h-140v-234q0 -33 33 -33h101v-131h-115z" />
<glyph unicode="u" horiz-adv-x="569" d="M235 -13q-82 0 -133.5 53.5t-51.5 132.5v354h146v-307q0 -40 24.5 -66t62.5 -26q39 0 64.5 26.5t25.5 66.5v306h146v-527h-146v48h-10q-43 -61 -128 -61z" />
<glyph unicode="v" horiz-adv-x="559" d="M180 0l-170 527h157l106 -388h11l107 388h158l-169 -527h-200z" />
<glyph unicode="w" horiz-adv-x="828" d="M129 0l-119 527h155l67 -388h11l79 388h184l79 -388h11l67 388h155l-120 -527h-203l-78 387h-6l-78 -387h-204z" />
<glyph unicode="x" horiz-adv-x="556" d="M5 0l175 278l-163 249h171l84 -152h11l85 152h170l-157 -260l170 -267h-171l-98 169h-11l-97 -169h-169z" />
<glyph unicode="y" horiz-adv-x="563" d="M59 -230v133h77q40 0 55 37l23 60h-28l-176 527h158l107 -387h11l107 387h160l-231 -650q-20 -56 -62.5 -81.5t-113.5 -25.5h-87z" />
<glyph unicode="z" horiz-adv-x="501" d="M40 0v198l278 189v11h-270v129h409v-205l-278 -182v-11h282v-129h-421z" />
<glyph unicode="{" horiz-adv-x="476" d="M297 390q0 -60 -53 -75v-11q53 -15 53 -75v-207q0 -33 34 -33h40v-132h-50q-76 0 -120.5 39.5t-44.5 124.5v183q0 15 -10 25t-24 10h-42v140h42q14 0 24 9.5t10 25.5v185q0 89 43.5 126.5t121.5 37.5h50v-132h-40q-34 0 -34 -33v-208z" />
<glyph unicode="|" horiz-adv-x="299" d="M80 -206v989h139v-989h-139z" />
<glyph unicode="}" horiz-adv-x="476" d="M354 379h42v-140h-42q-14 0 -24 -10t-10 -25v-183q0 -85 -44.5 -124.5t-120.5 -39.5h-50v132h40q34 0 34 33v207q0 60 53 75v11q-53 15 -53 75v208q0 33 -34 33h-40v132h50q78 0 121.5 -37.5t43.5 -126.5v-185q0 -16 10 -25.5t24 -9.5z" />
<glyph unicode="~" horiz-adv-x="567" d="M368 207q-40 0 -90 26.5t-70 26.5q-17 0 -28 -13.5t-11 -36.5h-119q0 82 39.5 131t108.5 49q42 0 93 -27t68 -27q39 0 39 51h119q0 -82 -39.5 -131t-109.5 -49z" />
<glyph unicode="&#xa1;" horiz-adv-x="322" d="M162 392q-38 0 -62.5 24.5t-24.5 59.5t24.5 59.5t62.5 24.5t61.5 -24.5t23.5 -59.5t-23.5 -59.5t-61.5 -24.5zM90 -153l12 476h121l13 -476h-146z" />
<glyph unicode="&#xa2;" horiz-adv-x="609" d="M313 215q47 0 80 24.5t45 67.5l136 -33q-20 -79 -72 -127.5t-126 -63.5v-83h-130v82q-96 20 -153.5 95t-57.5 175q0 102 57 176.5t154 94.5v76h130v-77q74 -15 125.5 -64.5t72.5 -128.5l-135 -34q-12 45 -45.5 70t-80.5 25q-59 0 -94.5 -39t-35.5 -99q0 -59 36 -98 t94 -39z" />
<glyph unicode="&#xa3;" horiz-adv-x="598" d="M50 0v135h59v141h-51v125h51v97q0 93 63.5 154t157.5 61q98 0 158 -63t60 -143h-146q0 27 -20.5 45.5t-50.5 18.5q-33 0 -54 -21t-21 -56v-93h149v-125h-149v-141h284v-135h-490z" />
<glyph unicode="&#xa5;" horiz-adv-x="662" d="M652 700l-175 -287h79v-120h-151v-55h151v-120h-151v-118h-148v118h-151v120h151v55h-151v120h79l-175 287h171l142 -251h11l143 251h175z" />
<glyph unicode="&#xa7;" horiz-adv-x="539" d="M258 -213q-91 0 -149.5 56t-58.5 145h133q1 -28 20 -47.5t55 -19.5q28 0 47 15.5t19 39.5q0 42 -52 71l-103 60q-110 65 -110 162q0 42 20.5 73t50.5 45v11q-60 55 -60 140q0 91 60 143t151 52t149.5 -56t58.5 -145h-133q-1 28 -20 47.5t-55 19.5q-28 0 -47 -15.5 t-19 -39.5q0 -42 52 -71l103 -60q110 -65 110 -162q0 -42 -19.5 -73t-51.5 -45v-11q60 -55 60 -140q0 -91 -60 -143t-151 -52zM301 193q17 4 27 16.5t10 28.5q0 29 -36 51l-64 38q-17 -4 -27 -16.5t-10 -28.5q0 -29 36 -51z" />
<glyph unicode="&#xa8;" horiz-adv-x="466" d="M127 601q-33 0 -55 21t-22 54q0 31 22 53.5t55 22.5q32 0 53.5 -22.5t21.5 -53.5q0 -33 -21.5 -54t-53.5 -21zM340 601q-33 0 -54.5 21t-21.5 54q0 31 22 53.5t54 22.5q35 0 55.5 -22t20.5 -54q0 -33 -21 -54t-55 -21z" />
<glyph unicode="&#xa9;" horiz-adv-x="797" d="M398 -14q-156 0 -257 104t-101 258q0 153 101.5 259t254.5 106q157 0 259 -105.5t102 -259.5t-101 -258t-258 -104zM398 85q112 0 183.5 75t71.5 189q0 113 -72 188.5t-185 75.5q-109 0 -180.5 -76t-71.5 -189t71.5 -188t182.5 -75zM403 155q-84 0 -136.5 55t-52.5 138 t52 138t136 55q64 0 110 -35t61 -95l-85 -15q-9 29 -33 44.5t-53 15.5q-42 0 -69.5 -29t-27.5 -79q0 -51 28.5 -79.5t69.5 -28.5q66 0 88 57l83 -12q-16 -64 -62 -97t-109 -33z" />
<glyph unicode="&#xaa;" horiz-adv-x="512" d="M216 300q-76 0 -128.5 59.5t-52.5 147.5t52 147t128 59q65 0 107 -47h12v37h109v-284q0 -18 16 -18h18v-91h-94q-44 0 -49 42h-11q-30 -52 -107 -52zM241 404q41 0 67.5 30t26.5 72q0 48 -27 75.5t-68 27.5q-40 0 -67 -28.5t-27 -74.5q0 -45 27.5 -73.5t67.5 -28.5z" />
<glyph unicode="&#xab;" horiz-adv-x="567" d="M158 94l-108 145v96l108 147h149l-140 -190v-11l140 -187h-149zM368 94l-108 145v96l108 147h149l-140 -190v-11l140 -187h-149z" />
<glyph unicode="&#xad;" horiz-adv-x="406" d="M55 227v136h296v-136h-296z" />
<glyph unicode="&#xae;" horiz-adv-x="518" d="M259 318q-100 0 -162 63t-62 157t61.5 157.5t160.5 63.5q102 0 164 -63t62 -157q0 -93 -61.5 -157t-162.5 -64zM259 382q72 0 113.5 43.5t41.5 113.5q0 69 -42 112t-115 43q-70 0 -111.5 -43.5t-41.5 -112.5q0 -68 42 -112t113 -44zM179 430v216h96q35 0 57.5 -21.5 t22.5 -50.5q0 -51 -38 -67l41 -77h-61l-32 66h-29v-66h-57zM236 545h31q28 0 28 25q0 11 -7.5 18.5t-20.5 7.5h-31v-51z" />
<glyph unicode="&#xaf;" horiz-adv-x="385" d="M50 619v113h285v-113h-285z" />
<glyph unicode="&#xb0;" horiz-adv-x="399" d="M200 411q-67 0 -111 44t-44 107q0 62 44.5 106.5t110.5 44.5t110 -44t44 -107t-44 -107t-110 -44zM200 514q21 0 34 13.5t13 34.5t-13 35t-34 14t-34.5 -14t-13.5 -35t13.5 -34.5t34.5 -13.5z" />
<glyph unicode="&#xb2;" horiz-adv-x="322" d="M32 304v109l136 119q33 28 33 54q0 16 -11.5 27t-31.5 11t-33.5 -13.5t-13.5 -34.5l-81 1q0 54 34 92.5t94 38.5q58 0 95 -34t37 -84q0 -58 -61 -109l-110 -91v-7h173v-79h-260z" />
<glyph unicode="&#xb3;" horiz-adv-x="328" d="M161 296q-62 0 -96.5 38.5t-34.5 91.5h85q2 -46 48 -46q20 0 33 11.5t13 31.5q0 18 -12.5 31t-36.5 13h-61v101l94 46v7h-154v79h241v-116l-94 -43v-7q47 0 79.5 -31t32.5 -77q0 -56 -38 -93t-99 -37z" />
<glyph unicode="&#xb4;" horiz-adv-x="299" d="M50 600l41 149h158l-102 -149h-97z" />
<glyph unicode="&#xb6;" horiz-adv-x="577" d="M197 -45v357q-72 7 -119.5 63.5t-47.5 129.5q0 82 58 138.5t141 56.5h293v-131h-58v-614h-111v614h-45v-614h-111z" />
<glyph unicode="&#xb7;" horiz-adv-x="272" d="M137 230q-38 0 -62.5 24.5t-24.5 59.5t24.5 59.5t62.5 24.5t61.5 -24.5t23.5 -59.5t-23.5 -59.5t-61.5 -24.5z" />
<glyph unicode="&#xb8;" horiz-adv-x="243" d="M50 -211l44 211h99l-18 -211h-125z" />
<glyph unicode="&#xb9;" horiz-adv-x="302" d="M44 304v79h78v230h-7l-85 -47v87l86 47h88v-317h68v-79h-228z" />
<glyph unicode="&#xba;" horiz-adv-x="509" d="M255 300q-91 0 -150.5 59t-59.5 147t59.5 147.5t150.5 59.5t150 -59.5t59 -147.5q0 -87 -59 -146.5t-150 -59.5zM255 403q43 0 71 29.5t28 73.5q0 45 -28 74.5t-71 29.5q-44 0 -71.5 -30t-27.5 -74t27.5 -73.5t71.5 -29.5z" />
<glyph unicode="&#xbb;" horiz-adv-x="567" d="M50 94l140 187v11l-140 190h149l108 -147v-96l-108 -145h-149zM260 94l140 187v11l-140 190h149l108 -147v-96l-108 -145h-149z" />
<glyph unicode="&#xbc;" horiz-adv-x="812" d="M183 -41l398 782h95l-398 -782h-95zM44 304v79h78v230h-7l-85 -47v87l86 47h88v-317h68v-79h-228zM654 0v82h-177v86l136 228h123v-235h46v-79h-46v-82h-82zM563 161h91v148h-7l-84 -141v-7z" />
<glyph unicode="&#xbd;" horiz-adv-x="846" d="M183 -41l398 782h95l-398 -782h-95zM44 304v79h78v230h-7l-85 -47v87l86 47h88v-317h68v-79h-228zM556 0v109l136 119q33 27 33 54q0 16 -11.5 27t-31.5 11t-33.5 -13.5t-13.5 -34.5l-81 1q0 54 34 92.5t94 38.5q58 0 95 -34t37 -84q0 -58 -61 -109l-110 -91v-7h173v-79 h-260z" />
<glyph unicode="&#xbe;" horiz-adv-x="802" d="M173 -41l398 782h95l-398 -782h-95zM161 296q-62 0 -96.5 38.5t-34.5 91.5h85q2 -46 48 -46q20 0 33 11.5t13 31.5q0 18 -12.5 31t-36.5 13h-61v101l94 46v7h-154v79h241v-116l-94 -43v-7q47 0 79.5 -31t32.5 -77q0 -56 -38 -93t-99 -37zM644 0v82h-177v86l136 228h123 v-235h46v-79h-46v-82h-82zM553 161h91v148h-7l-84 -141v-7z" />
<glyph unicode="&#xbf;" horiz-adv-x="542" d="M279 392q-38 0 -61.5 24.5t-23.5 59.5t23.5 59.5t61.5 24.5t62.5 -24.5t24.5 -59.5t-24.5 -59.5t-62.5 -24.5zM266 -166q-97 0 -156 55t-59 141q0 110 96 169l41 25q22 13 22 36v64h140v-74q0 -43 -14 -70.5t-55 -50.5l-34 -20q-17 -10 -26.5 -18t-17.5 -23t-8 -33 q0 -28 19.5 -47.5t53.5 -19.5t53.5 22t19.5 58h137q0 -94 -54.5 -154t-157.5 -60z" />
<glyph unicode="&#xc0;" horiz-adv-x="692" d="M413 780h-97l-102 149h158zM530 0l-45 140h-275l-45 -140h-160l237 700h210l235 -700h-157zM253 276h188l-89 274h-11z" />
<glyph unicode="&#xc1;" horiz-adv-x="692" d="M484 929l-102 -149h-97l41 149h158zM530 0l-45 140h-275l-45 -140h-160l237 700h210l235 -700h-157zM253 276h188l-89 274h-11z" />
<glyph unicode="&#xc2;" horiz-adv-x="692" d="M348 838l-52 -58h-111l95 149h148l94 -149h-110l-53 58h-11zM530 0l-45 140h-275l-45 -140h-160l237 700h210l235 -700h-157zM253 276h188l-89 274h-11z" />
<glyph unicode="&#xc3;" horiz-adv-x="692" d="M297 823q-30 0 -30 -36h-98q0 74 32.5 109t82.5 35q38 0 77.5 -18.5t50.5 -18.5q14 0 22 10t8 26h98q0 -74 -32 -109t-82 -35q-33 0 -73 18.5t-56 18.5zM530 0l-45 140h-275l-45 -140h-160l237 700h210l235 -700h-157zM253 276h188l-89 274h-11z" />
<glyph unicode="&#xc4;" horiz-adv-x="692" d="M248 774q-33 0 -55 21t-22 54q0 31 22 53.5t55 22.5q32 0 53.5 -22.5t21.5 -53.5q0 -33 -21.5 -54t-53.5 -21zM461 774q-33 0 -54.5 21t-21.5 54q0 31 22 53.5t54 22.5q35 0 55.5 -22t20.5 -54q0 -33 -21 -54t-55 -21zM530 0l-45 140h-275l-45 -140h-160l237 700h210 l235 -700h-157zM253 276h188l-89 274h-11z" />
<glyph unicode="&#xc5;" horiz-adv-x="692" d="M349 759q-49 0 -80 29.5t-31 75.5t31 75.5t79 29.5q50 0 81 -29t31 -75q0 -47 -31 -76.5t-80 -29.5zM348 901q-15 0 -25.5 -11t-10.5 -26q0 -16 10.5 -26.5t26.5 -10.5t26 10.5t10 27.5q0 15 -10.5 25.5t-26.5 10.5zM530 0l-45 140h-275l-45 -140h-160l237 700h210 l235 -700h-157zM253 276h188l-89 274h-11z" />
<glyph unicode="&#xc6;" horiz-adv-x="950" d="M5 0l350 700h545v-140h-291v-135h251v-139h-251v-147h301v-139h-450v140h-208l-67 -140h-180zM317 276h143v274h-11z" />
<glyph unicode="&#xc7;" horiz-adv-x="779" d="M402 131q60 0 109.5 29t73.5 84h159q-32 -112 -112 -178t-188 -78l-17 -199h-125l42 201q-136 19 -220 119t-84 241q0 155 101.5 259t260.5 104q123 0 215 -67.5t127 -190.5h-159q-23 54 -72.5 84t-110.5 30q-90 0 -149 -62.5t-59 -156.5q0 -95 59 -157t149 -62z" />
<glyph unicode="&#xc8;" horiz-adv-x="560" d="M268 780l-102 149h158l41 -149h-97zM70 0v700h440v-140h-291v-135h251v-139h-251v-147h301v-139h-450z" />
<glyph unicode="&#xc9;" horiz-adv-x="560" d="M237 780l41 149h158l-102 -149h-97zM70 0v700h440v-140h-291v-135h251v-139h-251v-147h301v-139h-450z" />
<glyph unicode="&#xca;" horiz-adv-x="560" d="M137 780l95 149h148l94 -149h-110l-53 58h-11l-52 -58h-111zM70 0v700h440v-140h-291v-135h251v-139h-251v-147h301v-139h-450z" />
<glyph unicode="&#xcb;" horiz-adv-x="560" d="M200 774q-33 0 -55 21t-22 54q0 31 22 53.5t55 22.5q32 0 53.5 -22.5t21.5 -53.5q0 -33 -21.5 -54t-53.5 -21zM413 774q-33 0 -54.5 21t-21.5 54q0 31 22 53.5t54 22.5q35 0 55.5 -22t20.5 -54q0 -33 -21 -54t-55 -21zM70 0v700h440v-140h-291v-135h251v-139h-251v-147 h301v-139h-450z" />
<glyph unicode="&#xcc;" horiz-adv-x="469" d="M203 780l-102 149h158l41 -149h-97zM65 0v136h94v428h-94v136h339v-136h-96v-428h96v-136h-339z" />
<glyph unicode="&#xcd;" horiz-adv-x="469" d="M172 780l41 149h158l-102 -149h-97zM65 0v136h94v428h-94v136h339v-136h-96v-428h96v-136h-339z" />
<glyph unicode="&#xce;" horiz-adv-x="469" d="M72 780l95 149h148l94 -149h-110l-53 58h-11l-52 -58h-111zM65 0v136h94v428h-94v136h339v-136h-96v-428h96v-136h-339z" />
<glyph unicode="&#xcf;" horiz-adv-x="469" d="M135 774q-33 0 -55 21t-22 54q0 31 22 53.5t55 22.5q32 0 53.5 -22.5t21.5 -53.5q0 -33 -21.5 -54t-53.5 -21zM348 774q-33 0 -54.5 21t-21.5 54q0 31 22 53.5t54 22.5q35 0 55.5 -22t20.5 -54q0 -33 -21 -54t-55 -21zM65 0v136h94v428h-94v136h339v-136h-96v-428h96 v-136h-339z" />
<glyph unicode="&#xd0;" horiz-adv-x="726" d="M330 700q167 0 261.5 -96.5t94.5 -253.5q0 -164 -93.5 -257t-262.5 -93h-275v128h60v156h-53v139h53v149h-60v128h275zM330 134q96 0 149 57.5t53 158.5q0 98 -53.5 156.5t-148.5 58.5h-68v-142h135v-139h-135v-150h68z" />
<glyph unicode="&#xd1;" horiz-adv-x="714" d="M445 786q-33 0 -73 18.5t-56 18.5q-30 0 -30 -36h-98q0 74 32.5 109t82.5 35q37 0 77 -18.5t51 -18.5q14 0 22 10t8 26h98q0 -74 -32 -109t-82 -35zM70 0v700h254l162 -550h10v550h148v-700h-256l-158 550h-11v-550h-149z" />
<glyph unicode="&#xd2;" horiz-adv-x="810" d="M372 780l-102 149h158l41 -149h-97zM405 -13q-158 0 -261.5 104t-103.5 260q0 154 104.5 258t260.5 104q157 0 261 -104.5t104 -257.5q0 -155 -104 -259.5t-261 -104.5zM405 131q90 0 150.5 62.5t60.5 157.5q0 94 -60.5 156t-150.5 62q-91 0 -151 -62t-60 -156 q0 -95 60 -157.5t151 -62.5z" />
<glyph unicode="&#xd3;" horiz-adv-x="810" d="M341 780l41 149h158l-102 -149h-97zM405 -13q-158 0 -261.5 104t-103.5 260q0 154 104.5 258t260.5 104q157 0 261 -104.5t104 -257.5q0 -155 -104 -259.5t-261 -104.5zM405 131q90 0 150.5 62.5t60.5 157.5q0 94 -60.5 156t-150.5 62q-91 0 -151 -62t-60 -156 q0 -95 60 -157.5t151 -62.5z" />
<glyph unicode="&#xd4;" horiz-adv-x="810" d="M241 780l95 149h148l94 -149h-110l-53 58h-11l-52 -58h-111zM405 -13q-158 0 -261.5 104t-103.5 260q0 154 104.5 258t260.5 104q157 0 261 -104.5t104 -257.5q0 -155 -104 -259.5t-261 -104.5zM405 131q90 0 150.5 62.5t60.5 157.5q0 94 -60.5 156t-150.5 62 q-91 0 -151 -62t-60 -156q0 -95 60 -157.5t151 -62.5z" />
<glyph unicode="&#xd5;" horiz-adv-x="810" d="M482 786q-33 0 -73 18.5t-56 18.5q-30 0 -30 -36h-98q0 74 32.5 109t82.5 35q38 0 78 -18.5t50 -18.5q14 0 22 10t8 26h98q0 -74 -32 -109t-82 -35zM405 -13q-158 0 -261.5 104t-103.5 260q0 154 104.5 258t260.5 104q157 0 261 -104.5t104 -257.5q0 -155 -104 -259.5 t-261 -104.5zM405 131q90 0 150.5 62.5t60.5 157.5q0 94 -60.5 156t-150.5 62q-91 0 -151 -62t-60 -156q0 -95 60 -157.5t151 -62.5z" />
<glyph unicode="&#xd6;" horiz-adv-x="810" d="M304 774q-33 0 -55 21t-22 54q0 31 22 53.5t55 22.5q32 0 53.5 -22.5t21.5 -53.5q0 -33 -21.5 -54t-53.5 -21zM517 774q-33 0 -54.5 21t-21.5 54q0 31 22 53.5t54 22.5q35 0 55.5 -22t20.5 -54q0 -33 -21 -54t-55 -21zM405 -13q-158 0 -261.5 104t-103.5 260 q0 154 104.5 258t260.5 104q157 0 261 -104.5t104 -257.5q0 -155 -104 -259.5t-261 -104.5zM405 131q90 0 150.5 62.5t60.5 157.5q0 94 -60.5 156t-150.5 62q-91 0 -151 -62t-60 -156q0 -95 60 -157.5t151 -62.5z" />
<glyph unicode="&#xd7;" horiz-adv-x="496" d="M398 59l-150 158l-149 -157l-94 89l153 160l-151 160l92 92l149 -158l151 158l91 -92l-152 -160l153 -161z" />
<glyph unicode="&#xd8;" horiz-adv-x="810" d="M680 594q90 -101 90 -243q0 -155 -104 -259.5t-261 -104.5q-92 0 -172 39l-52 -66l-102 76l53 67q-92 102 -92 248q0 154 104.5 258t260.5 104q94 0 174 -41l50 63l102 -76zM194 351q0 -71 34 -125l258 328q-38 15 -81 15q-91 0 -151 -62t-60 -156zM405 131 q90 0 150.5 62.5t60.5 157.5q0 67 -33 120l-256 -326q37 -14 78 -14z" />
<glyph unicode="&#xd9;" horiz-adv-x="672" d="M303 780l-102 149h158l41 -149h-97zM336 -13q-131 0 -203.5 74.5t-72.5 199.5v439h149v-438q0 -61 32.5 -96t94.5 -35q61 0 94 35t33 97v437h149v-438q0 -125 -73 -200t-203 -75z" />
<glyph unicode="&#xda;" horiz-adv-x="672" d="M272 780l41 149h158l-102 -149h-97zM336 -13q-131 0 -203.5 74.5t-72.5 199.5v439h149v-438q0 -61 32.5 -96t94.5 -35q61 0 94 35t33 97v437h149v-438q0 -125 -73 -200t-203 -75z" />
<glyph unicode="&#xdb;" horiz-adv-x="672" d="M172 780l95 149h148l94 -149h-110l-53 58h-11l-52 -58h-111zM336 -13q-131 0 -203.5 74.5t-72.5 199.5v439h149v-438q0 -61 32.5 -96t94.5 -35q61 0 94 35t33 97v437h149v-438q0 -125 -73 -200t-203 -75z" />
<glyph unicode="&#xdc;" horiz-adv-x="672" d="M235 774q-33 0 -55 21t-22 54q0 31 22 53.5t55 22.5q32 0 53.5 -22.5t21.5 -53.5q0 -33 -21.5 -54t-53.5 -21zM448 774q-33 0 -54.5 21t-21.5 54q0 31 22 53.5t54 22.5q35 0 55.5 -22t20.5 -54q0 -33 -21 -54t-55 -21zM336 -13q-131 0 -203.5 74.5t-72.5 199.5v439h149 v-438q0 -61 32.5 -96t94.5 -35q61 0 94 35t33 97v437h149v-438q0 -125 -73 -200t-203 -75z" />
<glyph unicode="&#xdd;" horiz-adv-x="662" d="M273 780l41 149h158l-102 -149h-97zM257 0v294l-247 406h171l142 -251h11l143 251h175l-247 -406v-294h-148z" />
<glyph unicode="&#xde;" horiz-adv-x="586" d="M70 0v700h149v-117h100q105 0 171 -62t66 -164q0 -100 -67.5 -163.5t-169.5 -63.5h-100v-130h-149zM219 268h94q40 0 64.5 25.5t24.5 63.5t-24.5 62.5t-64.5 24.5h-94v-176z" />
<glyph unicode="&#xdf;" horiz-adv-x="643" d="M60 0v587q0 163 175 163h327v-193l-155 -114v-6q80 0 140.5 -56t60.5 -156q0 -105 -64 -165t-169 -60h-107v130h89q50 0 76 25.5t26 69.5q0 38 -26.5 62t-75.5 24h-89v171l155 128v6h-184q-19 0 -26.5 -8t-7.5 -25v-583h-145z" />
<glyph unicode="&#xe0;" horiz-adv-x="665" d="M282 600l-102 149h158l41 -149h-97zM278 -13q-102 0 -172.5 79.5t-70.5 197.5t70 197t172 79q93 0 146 -62h11v49h146v-383q0 -22 24 -22h21v-122h-132q-25 0 -41.5 16.5t-16.5 39.5h-11q-48 -69 -146 -69zM310 127q56 0 91 39.5t35 96.5q0 63 -36.5 99.5t-90.5 36.5 t-90 -37.5t-36 -98.5t36.5 -98.5t90.5 -37.5z" />
<glyph unicode="&#xe1;" horiz-adv-x="665" d="M251 600l41 149h158l-102 -149h-97zM278 -13q-102 0 -172.5 79.5t-70.5 197.5t70 197t172 79q93 0 146 -62h11v49h146v-383q0 -22 24 -22h21v-122h-132q-25 0 -41.5 16.5t-16.5 39.5h-11q-48 -69 -146 -69zM310 127q56 0 91 39.5t35 96.5q0 63 -36.5 99.5t-90.5 36.5 t-90 -37.5t-36 -98.5t36.5 -98.5t90.5 -37.5z" />
<glyph unicode="&#xe2;" horiz-adv-x="665" d="M151 600l95 149h148l94 -149h-110l-53 58h-11l-52 -58h-111zM278 -13q-102 0 -172.5 79.5t-70.5 197.5t70 197t172 79q93 0 146 -62h11v49h146v-383q0 -22 24 -22h21v-122h-132q-25 0 -41.5 16.5t-16.5 39.5h-11q-48 -69 -146 -69zM310 127q56 0 91 39.5t35 96.5 q0 63 -36.5 99.5t-90.5 36.5t-90 -37.5t-36 -98.5t36.5 -98.5t90.5 -37.5z" />
<glyph unicode="&#xe3;" horiz-adv-x="665" d="M392 606q-33 0 -73 18.5t-56 18.5q-30 0 -30 -36h-98q0 74 32.5 109t82.5 35q38 0 78 -18.5t50 -18.5q14 0 22 10t8 26h98q0 -74 -32 -109t-82 -35zM278 -13q-102 0 -172.5 79.5t-70.5 197.5t70 197t172 79q93 0 146 -62h11v49h146v-383q0 -22 24 -22h21v-122h-132 q-25 0 -41.5 16.5t-16.5 39.5h-11q-48 -69 -146 -69zM310 127q56 0 91 39.5t35 96.5q0 63 -36.5 99.5t-90.5 36.5t-90 -37.5t-36 -98.5t36.5 -98.5t90.5 -37.5z" />
<glyph unicode="&#xe4;" horiz-adv-x="665" d="M214 594q-33 0 -55 21t-22 54q0 31 22 53.5t55 22.5q32 0 53.5 -22.5t21.5 -53.5q0 -33 -21.5 -54t-53.5 -21zM427 594q-33 0 -54.5 21t-21.5 54q0 31 22 53.5t54 22.5q35 0 55.5 -22t20.5 -54q0 -33 -21 -54t-55 -21zM278 -13q-102 0 -172.5 79.5t-70.5 197.5t70 197 t172 79q93 0 146 -62h11v49h146v-383q0 -22 24 -22h21v-122h-132q-25 0 -41.5 16.5t-16.5 39.5h-11q-48 -69 -146 -69zM310 127q56 0 91 39.5t35 96.5q0 63 -36.5 99.5t-90.5 36.5t-90 -37.5t-36 -98.5t36.5 -98.5t90.5 -37.5z" />
<glyph unicode="&#xe5;" horiz-adv-x="665" d="M315 579q-49 0 -80 29.5t-31 75.5t31 75.5t79 29.5q50 0 81 -29t31 -75q0 -47 -31 -76.5t-80 -29.5zM315 647q16 0 26 10.5t10 27.5q0 15 -10.5 25.5t-26.5 10.5q-15 0 -25.5 -11t-10.5 -26q0 -16 10.5 -26.5t26.5 -10.5zM278 -13q-102 0 -172.5 79.5t-70.5 197.5t70 197 t172 79q93 0 146 -62h11v49h146v-383q0 -22 24 -22h21v-122h-132q-25 0 -41.5 16.5t-16.5 39.5h-11q-48 -69 -146 -69zM310 127q56 0 91 39.5t35 96.5q0 63 -36.5 99.5t-90.5 36.5t-90 -37.5t-36 -98.5t36.5 -98.5t90.5 -37.5z" />
<glyph unicode="&#xe6;" horiz-adv-x="982" d="M257 -13q-99 0 -160.5 50t-61.5 124q0 73 50 119t147 46h175q-6 44 -36.5 69.5t-84.5 25.5q-84 0 -108 -68l-122 33q43 155 230 155q128 0 192 -83h10q66 83 191 83q121 0 194.5 -79t73.5 -198v-37h-375q1 -46 32 -76.5t79 -30.5q77 0 106 61l139 -33 q-27 -84 -93.5 -122.5t-149.5 -38.5q-133 0 -212 93h-10q-35 -43 -82 -68t-124 -25zM572 326h216q-6 34 -35.5 59.5t-71.5 25.5q-45 0 -73.5 -26.5t-35.5 -58.5zM278 109q57 0 92 31.5t35 86.5h-151q-31 0 -52 -14t-21 -41t23.5 -45t73.5 -18z" />
<glyph unicode="&#xe7;" horiz-adv-x="609" d="M313 126q47 0 80 24.5t45 67.5l136 -33q-21 -83 -77.5 -133t-137.5 -61l-17 -202h-125l42 202q-101 16 -162.5 92t-61.5 180q0 118 76 197.5t198 79.5q98 0 169 -51.5t96 -148.5l-135 -34q-12 45 -45.5 70t-80.5 25q-59 0 -94.5 -39t-35.5 -99q0 -59 36 -98t94 -39z" />
<glyph unicode="&#xe8;" horiz-adv-x="602" d="M268 600l-102 149h158l41 -149h-97zM308 -13q-120 0 -196.5 78t-76.5 198q0 121 78 199t191 78q119 0 191 -78t72 -198v-37h-382q1 -51 34.5 -81t86.5 -30q85 0 114 63l130 -30q-27 -83 -92.5 -122.5t-149.5 -39.5zM186 324h234q-5 40 -37.5 67.5t-78.5 27.5 q-48 0 -80 -28.5t-38 -66.5z" />
<glyph unicode="&#xe9;" horiz-adv-x="602" d="M237 600l41 149h158l-102 -149h-97zM308 -13q-120 0 -196.5 78t-76.5 198q0 121 78 199t191 78q119 0 191 -78t72 -198v-37h-382q1 -51 34.5 -81t86.5 -30q85 0 114 63l130 -30q-27 -83 -92.5 -122.5t-149.5 -39.5zM186 324h234q-5 40 -37.5 67.5t-78.5 27.5 q-48 0 -80 -28.5t-38 -66.5z" />
<glyph unicode="&#xea;" horiz-adv-x="602" d="M137 600l95 149h148l94 -149h-110l-53 58h-11l-52 -58h-111zM308 -13q-120 0 -196.5 78t-76.5 198q0 121 78 199t191 78q119 0 191 -78t72 -198v-37h-382q1 -51 34.5 -81t86.5 -30q85 0 114 63l130 -30q-27 -83 -92.5 -122.5t-149.5 -39.5zM186 324h234q-5 40 -37.5 67.5 t-78.5 27.5q-48 0 -80 -28.5t-38 -66.5z" />
<glyph unicode="&#xeb;" horiz-adv-x="602" d="M200 594q-33 0 -55 21t-22 54q0 31 22 53.5t55 22.5q32 0 53.5 -22.5t21.5 -53.5q0 -33 -21.5 -54t-53.5 -21zM413 594q-33 0 -54.5 21t-21.5 54q0 31 22 53.5t54 22.5q35 0 55.5 -22t20.5 -54q0 -33 -21 -54t-55 -21zM308 -13q-120 0 -196.5 78t-76.5 198q0 121 78 199 t191 78q119 0 191 -78t72 -198v-37h-382q1 -51 34.5 -81t86.5 -30q85 0 114 63l130 -30q-27 -83 -92.5 -122.5t-149.5 -39.5zM186 324h234q-5 40 -37.5 67.5t-78.5 27.5q-48 0 -80 -28.5t-38 -66.5z" />
<glyph unicode="&#xec;" horiz-adv-x="327" d="M143 607l-102 149h158l41 -149h-97zM127 0v398h-87v129h232v-527h-145z" />
<glyph unicode="&#xed;" horiz-adv-x="327" d="M112 607l41 149h158l-102 -149h-97zM127 0v398h-87v129h232v-527h-145z" />
<glyph unicode="&#xee;" horiz-adv-x="327" d="M12 607l95 149h148l94 -149h-110l-53 58h-11l-52 -58h-111zM127 0v398h-87v129h232v-527h-145z" />
<glyph unicode="&#xef;" horiz-adv-x="327" d="M75 601q-33 0 -55 21t-22 54q0 31 22 53.5t55 22.5q32 0 53.5 -22.5t21.5 -53.5q0 -33 -21.5 -54t-53.5 -21zM288 601q-33 0 -54.5 21t-21.5 54q0 31 22 53.5t54 22.5q35 0 55.5 -22t20.5 -54q0 -33 -21 -54t-55 -21zM127 0v398h-87v129h232v-527h-145z" />
<glyph unicode="&#xf0;" horiz-adv-x="620" d="M420 623q165 -155 165 -374q0 -116 -78.5 -189t-196.5 -73q-121 0 -198 73t-77 189q0 113 74 185.5t178 72.5q47 0 88 -15h6q-29 43 -79 87l-157 -59v81l83 32q-50 33 -114 59l74 68q82 -25 164 -81l140 53v-82zM310 126q58 0 92.5 34t34.5 89q0 56 -34.5 92.5 t-92.5 36.5t-92.5 -36.5t-34.5 -92.5q0 -55 34.5 -89t92.5 -34z" />
<glyph unicode="&#xf1;" horiz-adv-x="579" d="M376 606q-33 0 -73 18.5t-56 18.5q-30 0 -30 -36h-98q0 74 32.5 109t82.5 35q38 0 77.5 -18.5t50.5 -18.5q14 0 22 10t8 26h98q0 -74 -32 -109t-82 -35zM60 0v527h146v-48h10q43 61 128 61q82 0 133.5 -53.5t51.5 -132.5v-354h-146v307q0 40 -24.5 66t-62.5 26 q-39 0 -64.5 -26.5t-25.5 -66.5v-306h-146z" />
<glyph unicode="&#xf2;" horiz-adv-x="631" d="M283 600l-102 149h158l41 -149h-97zM316 -13q-123 0 -202 79t-79 197q0 119 79.5 198t201.5 79t201 -79.5t79 -197.5t-79 -197t-201 -79zM316 126q58 0 95 39t37 98q0 60 -37 99t-95 39t-95.5 -39t-37.5 -99q0 -59 37.5 -98t95.5 -39z" />
<glyph unicode="&#xf3;" horiz-adv-x="631" d="M252 600l41 149h158l-102 -149h-97zM316 -13q-123 0 -202 79t-79 197q0 119 79.5 198t201.5 79t201 -79.5t79 -197.5t-79 -197t-201 -79zM316 126q58 0 95 39t37 98q0 60 -37 99t-95 39t-95.5 -39t-37.5 -99q0 -59 37.5 -98t95.5 -39z" />
<glyph unicode="&#xf4;" horiz-adv-x="631" d="M152 600l95 149h148l94 -149h-110l-53 58h-11l-52 -58h-111zM316 -13q-123 0 -202 79t-79 197q0 119 79.5 198t201.5 79t201 -79.5t79 -197.5t-79 -197t-201 -79zM316 126q58 0 95 39t37 98q0 60 -37 99t-95 39t-95.5 -39t-37.5 -99q0 -59 37.5 -98t95.5 -39z" />
<glyph unicode="&#xf5;" horiz-adv-x="631" d="M393 606q-33 0 -73 18.5t-56 18.5q-30 0 -30 -36h-98q0 74 32.5 109t82.5 35q37 0 77 -18.5t51 -18.5q14 0 22 10t8 26h98q0 -74 -32 -109t-82 -35zM316 -13q-123 0 -202 79t-79 197q0 119 79.5 198t201.5 79t201 -79.5t79 -197.5t-79 -197t-201 -79zM316 126q58 0 95 39 t37 98q0 60 -37 99t-95 39t-95.5 -39t-37.5 -99q0 -59 37.5 -98t95.5 -39z" />
<glyph unicode="&#xf6;" horiz-adv-x="631" d="M215 594q-33 0 -55 21t-22 54q0 31 22 53.5t55 22.5q32 0 53.5 -22.5t21.5 -53.5q0 -33 -21.5 -54t-53.5 -21zM428 594q-33 0 -54.5 21t-21.5 54q0 31 22 53.5t54 22.5q35 0 55.5 -22t20.5 -54q0 -33 -21 -54t-55 -21zM316 -13q-123 0 -202 79t-79 197q0 119 79.5 198 t201.5 79t201 -79.5t79 -197.5t-79 -197t-201 -79zM316 126q58 0 95 39t37 98q0 60 -37 99t-95 39t-95.5 -39t-37.5 -99q0 -59 37.5 -98t95.5 -39z" />
<glyph unicode="&#xf7;" horiz-adv-x="497" d="M241 421q-28 0 -46.5 18.5t-18.5 46.5q0 27 19 46.5t46 19.5q29 0 47.5 -19t18.5 -47q0 -29 -18.5 -47t-47.5 -18zM5 247v129h487v-129h-487zM241 72q-28 0 -46.5 18.5t-18.5 46.5q0 27 19 46.5t46 19.5q29 0 47.5 -19t18.5 -47t-18.5 -46.5t-47.5 -18.5z" />
<glyph unicode="&#xf8;" horiz-adv-x="631" d="M524 454q72 -77 72 -191q0 -118 -79 -197t-201 -79q-72 0 -132 29l-35 -45l-80 62l34 44q-68 77 -68 186q0 119 79.5 198t201.5 79q70 0 125 -26l41 52l80 -63zM183 263q0 -34 14 -65l154 199q-15 4 -35 4q-58 0 -95.5 -39t-37.5 -99zM316 126q58 0 95 39t37 98 q0 40 -17 71l-157 -202q20 -6 42 -6z" />
<glyph unicode="&#xf9;" horiz-adv-x="569" d="M254 607l-102 149h158l41 -149h-97zM235 -13q-82 0 -133.5 53.5t-51.5 132.5v354h146v-307q0 -40 24.5 -66t62.5 -26q39 0 64.5 26.5t25.5 66.5v306h146v-527h-146v48h-10q-43 -61 -128 -61z" />
<glyph unicode="&#xfa;" horiz-adv-x="569" d="M223 607l41 149h158l-102 -149h-97zM235 -13q-82 0 -133.5 53.5t-51.5 132.5v354h146v-307q0 -40 24.5 -66t62.5 -26q39 0 64.5 26.5t25.5 66.5v306h146v-527h-146v48h-10q-43 -61 -128 -61z" />
<glyph unicode="&#xfb;" horiz-adv-x="569" d="M123 607l95 149h148l94 -149h-110l-53 58h-11l-52 -58h-111zM235 -13q-82 0 -133.5 53.5t-51.5 132.5v354h146v-307q0 -40 24.5 -66t62.5 -26q39 0 64.5 26.5t25.5 66.5v306h146v-527h-146v48h-10q-43 -61 -128 -61z" />
<glyph unicode="&#xfc;" horiz-adv-x="569" d="M186 601q-33 0 -55 21t-22 54q0 31 22 53.5t55 22.5q32 0 53.5 -22.5t21.5 -53.5q0 -33 -21.5 -54t-53.5 -21zM399 601q-33 0 -54.5 21t-21.5 54q0 31 22 53.5t54 22.5q35 0 55.5 -22t20.5 -54q0 -33 -21 -54t-55 -21zM235 -13q-82 0 -133.5 53.5t-51.5 132.5v354h146 v-307q0 -40 24.5 -66t62.5 -26q39 0 64.5 26.5t25.5 66.5v306h146v-527h-146v48h-10q-43 -61 -128 -61z" />
<glyph unicode="&#xfd;" horiz-adv-x="563" d="M214 607l41 149h158l-102 -149h-97zM59 -230v133h77q40 0 55 37l23 60h-28l-176 527h158l107 -387h11l107 387h160l-231 -650q-20 -56 -62.5 -81.5t-113.5 -25.5h-87z" />
<glyph unicode="&#xfe;" horiz-adv-x="640" d="M60 -223v973h146v-272h11q49 62 142 62q103 0 174.5 -79.5t71.5 -197.5q0 -116 -68.5 -196t-169.5 -80q-104 0 -150 67h-11v-277h-146zM331 125q54 0 90 39t36 100q0 60 -36.5 98.5t-90.5 38.5q-56 0 -91 -40t-35 -97q0 -64 36.5 -101.5t90.5 -37.5z" />
<glyph unicode="&#xff;" horiz-adv-x="563" d="M177 601q-33 0 -55 21t-22 54q0 31 22 53.5t55 22.5q32 0 53.5 -22.5t21.5 -53.5q0 -33 -21.5 -54t-53.5 -21zM390 601q-33 0 -54.5 21t-21.5 54q0 31 22 53.5t54 22.5q35 0 55.5 -22t20.5 -54q0 -33 -21 -54t-55 -21zM59 -230v133h77q40 0 55 37l23 60h-28l-176 527h158 l107 -387h11l107 387h160l-231 -650q-20 -56 -62.5 -81.5t-113.5 -25.5h-87z" />
<glyph unicode="&#x152;" horiz-adv-x="1094" d="M405 -13q-158 0 -261.5 104t-103.5 260q0 154 104.5 258t260.5 104q51 0 101 -13h538v-140h-337q41 -61 56 -135h241v-139h-239q-13 -80 -60 -147h349v-139h-548q-52 -13 -101 -13zM405 131q90 0 150.5 62.5t60.5 157.5q0 94 -60.5 156t-150.5 62q-91 0 -151 -62 t-60 -156q0 -95 60 -157.5t151 -62.5z" />
<glyph unicode="&#x153;" horiz-adv-x="1019" d="M984 264v-37h-382q1 -51 34.5 -81t86.5 -30q85 0 114 63l130 -30q-27 -83 -92.5 -122.5t-149.5 -39.5q-124 0 -203 84q-79 -84 -206 -84q-123 0 -202 79t-79 197q0 119 79.5 198t201.5 79q127 0 207 -85q77 85 198 85q119 0 191 -78t72 -198zM603 324h234 q-5 40 -37.5 67.5t-78.5 27.5q-48 0 -80 -28.5t-38 -66.5zM316 126q58 0 95 39t37 98q0 60 -37 99t-95 39t-95.5 -39t-37.5 -99q0 -59 37.5 -98t95.5 -39z" />
<glyph unicode="&#x178;" horiz-adv-x="662" d="M236 774q-33 0 -55 21t-22 54q0 31 22 53.5t55 22.5q32 0 53.5 -22.5t21.5 -53.5q0 -33 -21.5 -54t-53.5 -21zM449 774q-33 0 -54.5 21t-21.5 54q0 31 22 53.5t54 22.5q35 0 55.5 -22t20.5 -54q0 -33 -21 -54t-55 -21zM257 0v294l-247 406h171l142 -251h11l143 251h175 l-247 -406v-294h-148z" />
<glyph unicode="&#x2c6;" horiz-adv-x="437" d="M50 600l95 149h148l94 -149h-110l-53 58h-11l-52 -58h-111z" />
<glyph unicode="&#x2dc;" horiz-adv-x="471" d="M307 606q-33 0 -73 18.5t-56 18.5q-30 0 -30 -36h-98q0 74 32.5 109t82.5 35q37 0 77 -18.5t51 -18.5q14 0 22 10t8 26h98q0 -74 -32 -109t-82 -35z" />
<glyph unicode="&#x2000;" horiz-adv-x="484" />
<glyph unicode="&#x2001;" horiz-adv-x="969" />
<glyph unicode="&#x2002;" horiz-adv-x="484" />
<glyph unicode="&#x2003;" horiz-adv-x="969" />
<glyph unicode="&#x2004;" horiz-adv-x="323" />
<glyph unicode="&#x2005;" horiz-adv-x="242" />
<glyph unicode="&#x2006;" horiz-adv-x="161" />
<glyph unicode="&#x2007;" horiz-adv-x="161" />
<glyph unicode="&#x2008;" horiz-adv-x="121" />
<glyph unicode="&#x2009;" horiz-adv-x="193" />
<glyph unicode="&#x200a;" horiz-adv-x="53" />
<glyph unicode="&#x2010;" horiz-adv-x="406" d="M55 227v136h296v-136h-296z" />
<glyph unicode="&#x2011;" horiz-adv-x="406" d="M55 227v136h296v-136h-296z" />
<glyph unicode="&#x2012;" horiz-adv-x="406" d="M55 227v136h296v-136h-296z" />
<glyph unicode="&#x2013;" horiz-adv-x="609" d="M40 230v130h529v-130h-529z" />
<glyph unicode="&#x2014;" horiz-adv-x="844" d="M40 230v130h764v-130h-764z" />
<glyph unicode="&#x2018;" horiz-adv-x="263" d="M45 452l63 248h110l-21 -248h-152z" />
<glyph unicode="&#x2019;" horiz-adv-x="263" d="M45 452l21 248h152l-63 -248h-110z" />
<glyph unicode="&#x201a;" horiz-adv-x="272" d="M45 -97l20 249h152l-62 -249h-110z" />
<glyph unicode="&#x201c;" horiz-adv-x="461" d="M45 452l62 248h110l-20 -248h-152zM244 452l62 248h110l-20 -248h-152z" />
<glyph unicode="&#x201d;" horiz-adv-x="461" d="M45 452l20 248h152l-62 -248h-110zM244 452l20 248h152l-62 -248h-110z" />
<glyph unicode="&#x201e;" horiz-adv-x="471" d="M45 -97l20 249h152l-62 -249h-110zM244 -97l20 249h152l-62 -249h-110z" />
<glyph unicode="&#x2022;" horiz-adv-x="464" d="M232 138q-74 0 -123 50t-49 122t49 122t123 50t123 -50t49 -122t-49 -122t-123 -50z" />
<glyph unicode="&#x202f;" horiz-adv-x="193" />
<glyph unicode="&#x2039;" horiz-adv-x="357" d="M158 94l-108 145v96l108 147h149l-140 -190v-11l140 -187h-149z" />
<glyph unicode="&#x203a;" horiz-adv-x="357" d="M50 94l140 187v11l-140 190h149l108 -147v-96l-108 -145h-149z" />
<glyph unicode="&#x205f;" horiz-adv-x="242" />
<glyph unicode="&#x20ac;" horiz-adv-x="603" d="M296 571q-39 0 -64 -26.5t-25 -66.5v-14h131v-101h-131v-30h131v-101h-131v-10q0 -40 24.5 -66.5t64.5 -26.5q41 0 65.5 26.5t24.5 66.5h147v-4q0 -102 -70.5 -166.5t-166.5 -64.5q-95 0 -165.5 64.5t-70.5 166.5v14h-40v101h40v30h-40v101h40v18q0 102 70.5 166.5 t165.5 64.5q96 0 166.5 -64.5t70.5 -166.5v-4h-147q0 40 -25 66.5t-65 26.5z" />
<glyph unicode="&#x2122;" horiz-adv-x="811" d="M136 340v282h-86v78h254v-78h-85v-282h-83zM366 340v360h143l46 -282h17l46 282h143v-360h-76v282h-11l-47 -282h-127l-46 282h-11v-282h-77z" />
<glyph unicode="&#x25fc;" horiz-adv-x="525" d="M0 525h525v-525h-525v525z" />
<glyph d="M311 -13q-95 0 -165.5 64.5t-70.5 166.5v264q0 102 70.5 166.5t165.5 64.5q96 0 166.5 -64.5t70.5 -166.5v-264q0 -102 -70.5 -166.5t-166.5 -64.5zM311 129q41 0 65.5 26.5t24.5 66.5v256q0 40 -25 66.5t-65 26.5q-39 0 -64 -26.5t-25 -66.5v-256q0 -40 24.5 -66.5 t64.5 -26.5z" />
<glyph d="M125 0v135h136v415h-11l-151 -80v147l153 83h156v-565h117v-135h-400z" />
<glyph d="M85 0v196l245 206q57 47 57 97q0 29 -22.5 50.5t-58.5 21.5t-59.5 -26t-23.5 -66h-141q0 94 60.5 164t165.5 70q103 0 166 -61t63 -146q0 -65 -27 -112t-81 -90l-194 -155v-11h306v-138h-456z" />
<glyph d="M305 -12q-107 0 -167.5 70.5t-60.5 160.5h138q1 -43 27.5 -67t65.5 -24q42 0 68 25t26 63q0 40 -25.5 64.5t-75.5 24.5h-102v162l174 94v11h-282v128h431v-183l-174 -93v-11q81 0 140 -59t59 -137q0 -96 -67 -162.5t-175 -66.5z" />
<glyph d="M350 0v152h-303v138l235 410h215v-414h81v-134h-81v-152h-147zM197 286h153v264h-12l-141 -253v-11z" />
<glyph d="M310 -13q-99 0 -167 59t-72 171h140q1 -43 29 -66.5t67 -23.5q41 0 68 26.5t27 67.5t-27.5 69.5t-71.5 28.5q-25 0 -45.5 -11t-28.5 -22l-8 -11h-136l23 425h402v-135h-271l-9 -147h12q35 29 92 29q95 0 156.5 -66t61.5 -161q0 -102 -69.5 -167.5t-172.5 -65.5z" />
<glyph d="M309 -13q-100 0 -170.5 68t-70.5 168q0 69 43 145l191 332h165l-160 -257l9 -7q16 8 38 8q83 0 142.5 -64.5t59.5 -156.5q0 -98 -73.5 -167t-173.5 -69zM311 127q40 0 67.5 27.5t27.5 68.5t-27.5 68.5t-67.5 27.5t-66.5 -27.5t-26.5 -68.5t26.5 -68.5t66.5 -27.5z" />
<glyph d="M149 0l243 554v11h-181v-64h-129v199h460v-163l-230 -537h-163z" />
<glyph d="M447 376q42 -18 73 -64.5t31 -105.5q0 -96 -67 -156.5t-172 -60.5t-172 60.5t-67 156.5q0 59 31 105.5t73 64.5v11q-32 19 -52.5 56.5t-20.5 80.5q0 86 60 137.5t148 51.5t148 -51.5t60 -137.5q0 -43 -20.5 -80.5t-52.5 -56.5v-11zM312 583q-31 0 -50 -19.5t-19 -48.5 q0 -28 20 -49t49 -21q31 0 50 20.5t19 49.5t-19 48.5t-50 19.5zM312 129q45 0 68 26t23 62t-25 60.5t-66 24.5t-66 -24.5t-25 -60.5t23 -62t68 -26z" />
<glyph d="M157 0l160 257l-9 7q-16 -8 -38 -8q-83 0 -142.5 64.5t-59.5 156.5q0 98 73.5 167t173.5 69t170.5 -68t70.5 -168q0 -69 -43 -145l-191 -332h-165zM313 381q40 0 66.5 27.5t26.5 68.5t-26.5 68.5t-66.5 27.5t-67.5 -27.5t-27.5 -68.5t27.5 -68.5t67.5 -27.5z" />
</font>
</defs>
</svg>
